<svg id="visual" viewBox="0 0 900 600" width="900" height="600" xmlns="http://www.w3.org/2000/svg" xmlns:xlink="http://www.w3.org/1999/xlink" version="1.1"><path d="M0 85L82 85L82 43L164 43L164 55L245 55L245 115L327 115L327 115L409 115L409 67L491 67L491 97L573 97L573 97L655 97L655 49L736 49L736 127L818 127L818 61L900 61L900 79L900 0L900 0L818 0L818 0L736 0L736 0L655 0L655 0L573 0L573 0L491 0L491 0L409 0L409 0L327 0L327 0L245 0L245 0L164 0L164 0L82 0L82 0L0 0Z" fill="#fa7268"></path><path d="M0 145L82 145L82 121L164 121L164 109L245 109L245 205L327 205L327 211L409 211L409 121L491 121L491 151L573 151L573 163L655 163L655 127L736 127L736 193L818 193L818 109L900 109L900 133L900 77L900 59L818 59L818 125L736 125L736 47L655 47L655 95L573 95L573 95L491 95L491 65L409 65L409 113L327 113L327 113L245 113L245 53L164 53L164 41L82 41L82 83L0 83Z" fill="#ea5e66"></path><path d="M0 217L82 217L82 199L164 199L164 259L245 259L245 301L327 301L327 265L409 265L409 289L491 289L491 241L573 241L573 277L655 277L655 295L736 295L736 259L818 259L818 217L900 217L900 235L900 131L900 107L818 107L818 191L736 191L736 125L655 125L655 161L573 161L573 149L491 149L491 119L409 119L409 209L327 209L327 203L245 203L245 107L164 107L164 119L82 119L82 143L0 143Z" fill="#d84a64"></path><path d="M0 361L82 361L82 415L164 415L164 421L245 421L245 445L327 445L327 463L409 463L409 445L491 445L491 355L573 355L573 439L655 439L655 499L736 499L736 403L818 403L818 325L900 325L900 505L900 233L900 215L818 215L818 257L736 257L736 293L655 293L655 275L573 275L573 239L491 239L491 287L409 287L409 263L327 263L327 299L245 299L245 257L164 257L164 197L82 197L82 215L0 215Z" fill="#c53762"></path><path d="M0 601L82 601L82 601L164 601L164 601L245 601L245 601L327 601L327 601L409 601L409 601L491 601L491 601L573 601L573 601L655 601L655 601L736 601L736 601L818 601L818 601L900 601L900 601L900 503L900 323L818 323L818 401L736 401L736 497L655 497L655 437L573 437L573 353L491 353L491 443L409 443L409 461L327 461L327 443L245 443L245 419L164 419L164 413L82 413L82 359L0 359Z" fill="#b0235f"></path></svg>